<svg xmlns="http://www.w3.org/2000/svg" width="512" height="512" data-name="Layer 1" viewBox="0 0 128 128">
  <path d="M109.5 16.92H85.65V6.5a1.75 1.75 0 00-1.75-1.75H44.1a1.75 1.75 0 00-1.75 1.75v10.42H18.5a1.75 1.75 0 00-1.75 1.75V31.3a1.75 1.75 0 001.75 1.75h4.22l4.78 88.53a1.75 1.75 0 001.75 1.66h69.5a1.75 1.75 0 001.75-1.66l4.78-88.53h4.22a1.75 1.75 0 001.75-1.75V18.67a1.75 1.75 0 00-1.75-1.75zM45.85 8.25h36.3v8.67h-36.3zm51.24 111.5H30.91l-4.68-86.7h75.54zm10.66-90.2h-87.5v-9.13h87.5z"/>
  <path d="M46.67 96.56a1.75 1.75 0 001.75-1.75V52.67a1.75 1.75 0 00-3.5 0V94.8a1.75 1.75 0 001.75 1.75zM64 96.56a1.75 1.75 0 001.75-1.75V52.67a1.75 1.75 0 00-3.5 0V94.8A1.75 1.75 0 0064 96.56zM81.33 96.56a1.75 1.75 0 001.75-1.75V52.67a1.75 1.75 0 00-3.5 0V94.8a1.75 1.75 0 001.75 1.75z"/>
</svg>
